# xmcd CD database file
#
# Track frame offsets:
#	150
#	11273
#	21890
#	30506
#	43322
#	54733
#	66019
#	75241
#	85146
#	94339
#	103799
#	115673
#	126221
#	136505
#	148486
#	157654
#	164814
#
# Disc length: 2350 seconds
#
# Revision: 0
# Processed by: cddbd v1.4PL0 Copyright (c) Steve Scherf et al.
# Submitted via: CDex 1.40Release
#
DISCID=d9092c11
DTITLE=Conway Twitty - At His Very Best
DYEAR=2000
DGENRE=Country
TTITLE0=Big Town
TTITLE1=Big Train
TTITLE2=Blue Is The Way I Feel
TTITLE3=Crazy Dreams
TTITLE4=Broken Heart
TTITLE5=Have I Been Away Too Long
TTITLE6=Don't Go Too Far
TTITLE7=Ever Since You Went Away
TTITLE8=Give Me Some Love
TTITLE9=Wonder If You Told Her About Me
TTITLE10=You Made Me What I Am
TTITLE11=Let Me Be The Judge
TTITLE12=Midnight
TTITLE13=Sittin' In A Dim Cafe
TTITLE14=The Road That I Walk
TTITLE15=Treat Me Mean, Treat Me Cruel
TTITLE16=Turn The Other Cheek
EXTD=YEAR: 2000 ID3G: 2
EXTT0=
EXTT1=
EXTT2=
EXTT3=
EXTT4=
EXTT5=
EXTT6=
EXTT7=
EXTT8=
EXTT9=
EXTT10=
EXTT11=
EXTT12=
EXTT13=
EXTT14=
EXTT15=
EXTT16=
PLAYORDER=
